<svg width="40" height="40" viewBox="0 0 40 40" fill="none" xmlns="http://www.w3.org/2000/svg">
<path d="M32 27.6961C32 26.4579 31.6418 25.2639 30.8806 24.2025L28.0149 20.2667L30.8806 16.3309C31.6418 15.3138 32 14.0756 32 12.8374C32 9.5649 29.2687 7.04422 26.0448 7.04422C24.1642 7.04422 22.2836 7.97289 21.1194 9.5649L19.6866 11.5107C19.1493 8.90157 16.8657 7 13.9552 7C10.597 7 8 9.65335 8 12.9258V27.7403C8 31.0128 10.6418 33.6661 13.9552 33.6661C16.8209 33.6661 19.0597 31.8972 19.6418 29.3323L20.8955 31.1012C22.0597 32.7817 23.9851 33.6661 25.8657 33.6661C29.2687 33.7104 32 30.9686 32 27.6961Z" fill="#23C873"/>
</svg>
