<svg xmlns="http://www.w3.org/2000/svg" viewBox="0 0 190.95 100"><defs><style>.cls-1{fill:#046a38;}</style></defs><title>Asset 1</title><g id="Layer_2" data-name="Layer 2"><g id="Layer_1-2" data-name="Layer 1"><polygon class="cls-1" points="29.78 1.52 17.48 1.52 0 44.46 12.55 44.46 23.81 12.94 23.81 25.28 27.92 26.65 26.55 33.5 22.44 38.98 27.92 36.24 35.08 44.46 47.63 44.46 29.78 1.52"/><path class="cls-1" d="M159,96.07v0a3.89,3.89,0,0,1,7.78,0v0a3.89,3.89,0,0,1-7.78,0Zm7.33,0v0a3.44,3.44,0,1,0-6.88,0v0a3.44,3.44,0,1,0,6.88,0Zm-5-2.18h1.84a1.74,1.74,0,0,1,1.27.45,1.24,1.24,0,0,1,.35.9v0a1.29,1.29,0,0,1-.89,1.28l1,1.48h-1.07l-.88-1.33h-.72V98h-.91Zm1.82,2c.47,0,.71-.25.71-.59v0c0-.4-.28-.61-.73-.61h-.89v1.22Z"/><path class="cls-1" d="M49.44,0H61V44.46H49.44Z"/><path class="cls-1" d="M65.86,11.51H77.43V15.9c2.26-2.74,5.06-5.12,10-5.12,7.86,0,14.62,6.52,14.62,17V28c0,10.72-6.76,17.24-14.56,17.24a12.37,12.37,0,0,1-10-4.75V54.2H65.86ZM90.71,28v-.13c0-4.38-3-7.49-6.76-7.49s-6.76,3.11-6.76,7.49V28c0,4.38,3,7.49,6.76,7.49S90.71,32.46,90.71,28Z"/><path class="cls-1" d="M105.31,0h12V8.53h-12Zm.25,11.51h11.51v33H105.56Z"/><path class="cls-1" d="M122,11.51h11.57v4.63c2.13-2.74,5.18-5.36,9.87-5.36,7,0,11.2,4.63,11.2,12.12V44.46H143.14V26.62c0-3.66-1.89-5.61-4.69-5.61s-4.87,1.95-4.87,5.61V44.46H122Z"/><path class="cls-1" d="M157.76,28.14V28c0-9.63,6.88-17.24,16.62-17.24,11.33,0,16.57,8.34,16.57,18,0,.73,0,1.58-.06,2.37h-22c.91,3.59,3.53,5.42,7.13,5.42,2.8,0,4.93-1,7.31-3.35l6.39,5.3a17.22,17.22,0,0,1-14.25,6.7C165.06,45.25,157.76,38.31,157.76,28.14Zm22.41-2.87c-.43-3.65-2.62-6-5.79-6s-5.11,2.31-5.72,6Z"/><path class="cls-1" d="M2.56,92.94l6.58-7.86A22.06,22.06,0,0,0,23,90.19c3.23,0,4.94-1.09,4.94-2.92v-.12c0-1.83-1.4-2.74-7.25-4.14C11.58,80.94,4.57,78.38,4.57,69.67v-.12c0-7.92,6.27-13.64,16.51-13.64,7.24,0,12.91,2,17.54,5.66l-5.91,8.34a20.94,20.94,0,0,0-11.94-4.2c-2.86,0-4.26,1.16-4.26,2.74v.12c0,2,1.46,2.81,7.43,4.15C33.68,74.85,39.77,78,39.77,86v.12c0,8.71-6.88,13.89-17.23,13.89A29.9,29.9,0,0,1,2.56,92.94Z"/><path class="cls-1" d="M44.55,89V75.58h-3.9V66.32h3.9V58H56.06v8.34h7.67v9.26H56.06V86.79c0,2.31,1,3.28,3.17,3.28A10.13,10.13,0,0,0,63.61,89v9a16.46,16.46,0,0,1-8,2C48.63,99.94,44.55,96.89,44.55,89Z"/><path class="cls-1" d="M65.94,83v-.12c0-10.72,6.76-17.24,14.56-17.24a12.35,12.35,0,0,1,10,4.75v-4h11.58v33H90.54V94.89c-2.25,2.74-5.05,5.11-10,5.11C72.7,100,65.94,93.48,65.94,83Zm24.85-.12V82.7c0-4.32-3-7.49-6.76-7.49s-6.76,3.11-6.76,7.49v.13c0,4.38,3,7.49,6.76,7.49S90.79,87.21,90.79,82.83Z"/><path class="cls-1" d="M107.21,66.32h11.57V73c1.89-4.51,4.93-7.43,10.42-7.19V78h-1c-6,0-9.44,3.48-9.44,11V99.27H107.21Z"/><path class="cls-1" d="M133,89V58h11.51v8.34h7.67v9.26h-7.67V86.79c0,2.31,1,3.28,3.16,3.28A10.13,10.13,0,0,0,152,89v9a16.46,16.46,0,0,1-8,2C137,99.94,133,96.89,133,89Z"/></g></g></svg>